<svg width="148" height="148" viewBox="0 0 148 148" fill="none" xmlns="http://www.w3.org/2000/svg">
<path d="M20 128V0.700012H0V128V148H20H147.2V128H20Z" fill="black"/>
<path d="M44.3 110.6L42.2 105.9L81.1 88.6L120.7 46.2L124.5 49.7L84.2 92.9L44.3 110.6Z" fill="#EF5BA1"/>
<path d="M122.6 54C125.969 54 128.7 51.2689 128.7 47.9C128.7 44.5311 125.969 41.8 122.6 41.8C119.231 41.8 116.5 44.5311 116.5 47.9C116.5 51.2689 119.231 54 122.6 54Z" fill="#EF5BA1"/>
<path d="M82.9 96.8C86.2689 96.8 89 94.0689 89 90.7C89 87.3311 86.2689 84.6 82.9 84.6C79.5311 84.6 76.8 87.3311 76.8 90.7C76.8 94.0689 79.5311 96.8 82.9 96.8Z" fill="#EF5BA1"/>
<path d="M43.3 114.3C46.669 114.3 49.4 111.569 49.4 108.2C49.4 104.831 46.669 102.1 43.3 102.1C39.9311 102.1 37.2 104.831 37.2 108.2C37.2 111.569 39.9311 114.3 43.3 114.3Z" fill="#EF5BA1"/>
<path d="M83.8 53.2H43.3V48H82.1L121.1 20.5L124.1 24.8L83.8 53.2Z" fill="#EF5BA1"/>
<path d="M122.6 28.7C125.969 28.7 128.7 25.9689 128.7 22.6C128.7 19.2311 125.969 16.5 122.6 16.5C119.231 16.5 116.5 19.2311 116.5 22.6C116.5 25.9689 119.231 28.7 122.6 28.7Z" fill="#EF5BA1"/>
<path d="M82.9 56.7C86.2689 56.7 89 53.9689 89 50.6C89 47.2311 86.2689 44.5 82.9 44.5C79.5311 44.5 76.8 47.2311 76.8 50.6C76.8 53.9689 79.5311 56.7 82.9 56.7Z" fill="#EF5BA1"/>
<path d="M43.3 56.7C46.669 56.7 49.4 53.9689 49.4 50.6C49.4 47.2311 46.669 44.5 43.3 44.5C39.9311 44.5 37.2 47.2311 37.2 50.6C37.2 53.9689 39.9311 56.7 43.3 56.7Z" fill="#EF5BA1"/>
</svg>
