<svg fill="none" height="400" viewBox="0 0 400 400" width="400" xmlns="http://www.w3.org/2000/svg" xmlns:xlink="http://www.w3.org/1999/xlink"><clipPath id="a"><path d="m0 0h400v400h-400z"/></clipPath><g clip-path="url(#a)"><path d="m285.082 329.928-1.142-.062-4.944 10.731 1.841-.129 4.241-10.54zm5.005-7.748 5.894-7.242-1.778-1.014-1.837 4.255-2.281 4.001zm20.162-16.776-3.426-.187-6.214 4.702-3.235.511 1.018 2.347 2.41-2.161 9.449-5.213zm50.345-36.669-3.93 4.828 6.404-4.006zm8.173-153.814-1.142-.062-6.475-3.105-3.617-.886-3.238-3.615-2.031-.57-5.333-3.042-1.268 2.223-2.6 1.462-5.457-.757-1.715-2.156-5.201 2.925-2.537.32-2.222-1.269-3.295 1.654-3.235.511-1.268 2.223-2.982.065-1.267 2.223-2.351-3.108-2.284-.125-2.413-1.965-2.16-2.411-1.267 2.223-4.759-.948-1.906-2.855-4.626 5.019-.822 2.476-1.841.129-1.271-1.903 1.077-2.922-1.08-1.204-4.943 2.479-2.284-.126-.572-2.094-2.73-.379-.763-2.792-2.73-.379-3.613 3.24-2.346 1.018-2.222-1.268.378-2.73-4.253-1.838-.003-4.1263-3.235.5109-4.062-1.1393-1.964 2.414-2.537.3199-2.351-3.1076-4.377.4488-4.506-1.3922-2.222-1.2682-1.84.1289-5.204-1.2012.188-3.4275-1.906-2.8547-3.555-2.0288-.378 2.7306-4.506-1.3922-3.933.7018-5.589-6.7244-3.426-.1878 1.432-30.4069 1.312-23.996.558-14.4103-21.257-.9336-30.14-1.87856-34.01-2.31933-1.142-.06201-1.068 11.1737-2.322 29.8995-1.76 19.6184-2.765 29.64-2.826 34.9154-3.016 34.216-26.9035-2.389-26.9031-2.39-33.2493-3.653-21.6371-2.329 1.71782 6.282 2.15996 2.411 3.99856 2.282 1.78146 5.14 2.9235 5.203 5.1405 2.344 3.4291 4.313 2.7326 4.505 4.5728 4.376 1.0179 2.347 5.3983 6.026 3.9985 2.282 3.6837 3.868 2.6657 1.521 3.1763 4.758.7015 3.935 2.607 6.79 1.4617 2.601-1.0099 5.904.5107 3.236 2.6689 5.648.8924 4.633 2.3508 3.108 2.8566 2.22 2.7293.378 5.78 7.422 3.5548 2.028 4.315.696.1289 1.841 3.3019 2.473 4.0622 1.139 1.9054 2.854 2.8566 2.22 2.2839.126 4.9497 1.648 1.2676-2.223 4.1213-4.129 3.044-1.209.695-4.317 3.926-8.954 3.485-5.081 5.328-1.084 3.173.632 1.521-2.667 2.346-1.019 5.776 3.297 4.124-.003 10.662 1.958 2.536-.32 4.506 1.393 1.209 3.045 1.524 1.459 2.284.126 2.732 4.505 2.857 2.22.763 2.792 6.159 4.693 1.4 3.744 2.412 1.965 1.213 7.172 3.429 4.313.258 3.683 2.985 4.059 3.056 11.169 2.35 3.107 3.999 2.282 2.034 4.696 3.875 4.566.258 3.683 1.778 1.013 2.985 4.059 3.617.887 2.604 2.663-.379 2.731 1.462 2.601-1.33 3.366 2.035 4.696-1.201 5.206 3.111 1.774.32 2.538 2.856 2.22 1.271 1.903.065 2.984 2.604 2.663-1.391 4.508 1.523 1.46 1.146 4.188 3.871.44 2.222 1.269 2.982-.066 1.905 2.855 2.857 2.22 2.093-.573 6.728 2.66 2.351 3.108 2.665 1.521 9.138.499 4.568.25 3.616.886 8.572 6.658 5.706-3.814 3.681-.258-.066-2.984-3.106 2.352-.065-2.983-2.413-1.966.379-2.73-1.653-3.297.126-2.285-3.302-2.473 1.139-4.064-2.038-8.822-1.969-1.712.375-6.857 2.093-.572-.511-3.237 1.648-.826.503-5.015-2.601 1.462-3.871-.441.126-2.285 3.295-1.653 3.617.886 5.254-12.319-2.856-2.22-.954-3.491-3.426-.188-.826-1.648 8.248-.007 2.666 1.521 5.196-7.051-2.92-1.077-.569 2.032-2.857-2.22 1.964-2.414 8.947-.197 3.169-3.495-.065-2.983-1.652-3.297 2.093-.573 3.429 4.314 8.238-4.133-3.429-4.314-2.222-1.268.823-2.476 3.616.887 1.712-1.97 1.27 1.903 2.854-1.907 1.399 3.744 12.432-5.28 4.124-.003 3.044-1.209 5.707-3.815 1.394-.382 6.975-6.035-.258-3.682 2.853-1.907 5.387-6.352-1.524-1.459-2.732-4.505.12-6.411 4.697 2.091 1.583-3.81 2.093-.573 1.905 2.855-1.961 6.545 4.632-.893-1.33 3.366 18.329-8.394 5.964-.133-2.096-3.553.631-3.174 1.837-4.255 1.84-.129 2.472-3.304-.261-7.808-.955-3.491 1.268-2.223-1.145-4.188 1.204-1.081 3.419-8.064 1.392-4.508-1.715-2.156 1.902-1.272-4.957-9.891.569-2.032-5.336-7.168.249-4.57-2.861-6.346-4.381-3.677-.538-36.25-.525-19.749-1.333-.761-6.155-.566-2.601 1.462-3.047-2.917z" fill="#88a4bc" stroke="#fff" stroke-linejoin="round" stroke-width=".913125"/><path d="m205.292 191.949v-30.304h-11.32v-4.055h27.234v4.055h-11.367v30.304zm17.109 0 13.29-17.906-11.719-16.453h5.414l6.234 8.812c1.297 1.829 2.219 3.235 2.766 4.219.765-1.25 1.672-2.555 2.719-3.914l6.914-9.117h4.945l-12.07 16.195 13.007 18.164h-5.625l-8.648-12.258c-.484-.703-.984-1.468-1.5-2.296-.766 1.25-1.312 2.109-1.641 2.578l-8.625 11.976z" fill="#d5ddec"/><path d="m279.659 400.79c8.837 0 16-7.166 16-16.007s-7.163-16.008-16-16.008c-8.836 0-16 7.167-16 16.008s7.164 16.007 16 16.007z" fill="#2041d4" opacity=".8" stroke="#fff" stroke-width="1.2175"/></g></svg>