<svg fill="none" height="400" viewBox="0 0 400 400" width="400" xmlns="http://www.w3.org/2000/svg"><path d="m172.106 354.868 1.232 7.201 1.742 2.164 2.127-.575-2.583-3.821-2.518-4.966zm5.918-14.409.582 2.103-.191 3.441 5.094.505-1.485-2.612-4-3.438zm-39.033-30.875-4.836-.953.262 3.697 1.549 1.465 3.545-.958-.518-3.25zm6.511.121-2.189 1.722.838 1.655 3.87 1.59 2.642-1.469-5.161-3.5zm158.795 3.751-13.169-18.661-7.746-11.465-13.688-21.912-10.975-16.242-16.139-23.886-15.431-24.077-14.848-21.974-10.135-14.586-14.139-22.166 5.59-21.1 7.456-25.3712 3.472-12.2392 7.005-25.6255 5.006-19.0594-20.184-5.4633-13.542-3.4937-20.379-6.1646-13.278-3.9394-20.379-6.16467-20.572-6.86603-1.93 5.41907-1.739 1.97783 2.195 2.4204.197 4.8439-1.026 5.927-4.184 8.2884-1.674.8292.197 4.8439-6.3742 10.0106-1.3544-.7636-6.6972 7.4625.1973 4.8439-1.0295 1.7862 4.713 7.3887 4.0084 11.7231-.0597 5.2896-1.2201 5.2273-2.2545 2.8694-1.3511 3.3789.2686 11.9807-1.739 1.977 1.1637 4.205 3.5526 7.327 3.2955 7.772 2.3888 3.12 2.3918 7.263-.7058 4.334-3.284 4.655 2.8364-.767 2.1944 2.421 1.874 4.013 1.611.318 3.034 4.075 2.642-1.468-1.291-1.911 2.445-6.312 2.836-.767 2.583 3.822 4.322 1.845 2.448-2.17 1.486 2.612-5.158.642-1.742-2.164-5.673 1.534 1.552 5.607-1.482 1.531 1.742 2.164 1.679 3.31-.641 3.188-1.739 1.978-1.485-2.613-2.452-1.972.895-7.776-3.287.513-.448 3.888-2.574 4.464 1.548 1.465-.06 5.29-1.477 5.673 4.586 9.683 2.257 1.273 3.482.188 1.742 2.165.65 5.098-1.608 3.825-2.449 2.169-1.548-1.465-1.674 4.972-.576 6.183.776 2.804 2.646 2.674 2.13 3.567.713 3.951 2.001 1.719-.448 3.889 2.324 4.268.907 4.653 2.452 1.972 3.102 7.071 2.257 1.274.839 1.655-2.38 5.163 2.389 3.12 3.806 2.737-.128 2.294-3.09 5.357 1.035 2.356-1.352 3.379.582 2.102-2.768 3.763 3.549 3.184.325 2.548 10.124 2.158 3.418 1.335 3.097 2.929 4.128 1.144 3.481.188 4.257 2.992 4.131 5.287.456 4.396 7.612 5.475 4.063 2.291 7.158 1.076 2.131 3.568.455 4.396-1.351 3.379 2.709 1.527 1.933-1.276 4.516 2.545 2.582 3.821 4.841 5.095 6.261 8.854 3.684 9.173.007 8.285-1.483 1.53-.253 4.589 2.452 1.973-.06 5.289 18.252 2.598 22.18 3.039 32.626 3.605 1.674-.829 4.128 1.144 1.03-1.786 2.448-2.17.448-3.888-1.743-2.165-2.514-.826-1.743-2.165 1.608-3.824-.712-3.951.9-3.633 2.578-.321 3.928-3.7 2.702-6.758.382-6.883 4.123-2.998 1.288-2.232 4.512-1.598 4.318-2.297.322-1.593-5.936-6.304.384-2.742-1.876-8.155-1.355-.764-1.616-4.46.706-4.335z" fill="#88a4bc" stroke="#fff" stroke-linejoin="round" stroke-width=".913125"/><path d="m172.073 229.919 4.547 1.148c-.953 3.734-2.672 6.586-5.156 8.555-2.469 1.953-5.492 2.929-9.071 2.929-3.703 0-6.718-.75-9.046-2.25-2.313-1.515-4.079-3.703-5.297-6.562-1.203-2.859-1.805-5.93-1.805-9.211 0-3.578.68-6.695 2.039-9.352 1.375-2.671 3.32-4.695 5.836-6.07 2.531-1.391 5.312-2.086 8.344-2.086 3.437 0 6.328.875 8.672 2.625 2.343 1.75 3.976 4.211 4.898 7.383l-4.477 1.055c-.796-2.5-1.953-4.321-3.468-5.461-1.516-1.141-3.422-1.711-5.719-1.711-2.641 0-4.852.633-6.633 1.898-1.765 1.266-3.008 2.969-3.726 5.11-.719 2.125-1.079 4.32-1.079 6.586 0 2.921.422 5.476 1.266 7.664.859 2.171 2.188 3.796 3.984 4.875 1.797 1.078 3.743 1.617 5.836 1.617 2.547 0 4.704-.735 6.469-2.203 1.766-1.469 2.961-3.649 3.586-6.539zm6.399 12.046 13.195-34.359h4.898l14.063 34.359h-5.18l-4.008-10.406h-14.367l-3.773 10.406zm9.914-14.109h11.648l-3.586-9.516c-1.094-2.89-1.906-5.265-2.437-7.125-.438 2.204-1.055 4.391-1.852 6.563z" fill="#d5ddec"/><path d="m200.311 345.047c8.837 0 16-7.16 16-15.992s-7.163-15.991-16-15.991c-8.836 0-16 7.159-16 15.991s7.164 15.992 16 15.992z" fill="#2041d4" opacity=".8" stroke="#fff" stroke-width=".974207"/></svg>