<svg fill="none" height="400" viewBox="0 0 400 400" width="400" xmlns="http://www.w3.org/2000/svg"><path d="m173.122 356.868 1.218 7.201 1.722 2.164 2.103-.575-2.553-3.821-2.49-4.966zm5.851-14.409.576 2.103-.189 3.441 5.037.505-1.469-2.612-3.955-3.438zm-38.592-30.875-4.781-.953.259 3.697 1.531 1.465 3.506-.958-.513-3.25zm6.438.121-2.165 1.722.829 1.655 3.826 1.59 2.612-1.469-5.102-3.5zm157.001 3.751-13.02-18.661-7.659-11.465-13.533-21.912-10.851-16.242-15.957-23.886-15.256-24.077-14.681-21.974-10.021-14.586-13.979-22.166 5.527-21.1 7.372-25.3712 3.432-12.2392 6.927-25.6255 4.95-19.0594-19.957-5.4633-13.389-3.4937-20.149-6.1646-13.128-3.9394-20.149-6.1647-20.34-6.866-1.908 5.4191-1.719 1.9778 2.17 2.4204.195 4.8439-1.014 5.927-4.137 8.2884-1.656.8292.195 4.8439-6.3015 10.0106-1.3391-.7636-6.6216 7.4625.195 4.8439-1.0178 1.7862 4.6597 7.3887 3.9632 11.7231-.059 5.2896-1.2064 5.2273-2.229 2.8694-1.3358 3.3789.2655 11.9807-1.7193 1.977 1.1506 4.205 3.5124 7.327 3.2583 7.772 2.3619 3.12 2.3649 7.263-.698 4.334-3.247 4.655 2.804-.767 2.17 2.421 1.853 4.013 1.593.318 2.999 4.075 2.613-1.468-1.277-1.911 2.417-6.312 2.805-.767 2.553 3.822 4.273 1.845 2.421-2.17 1.469 2.612-5.099.642-1.723-2.164-5.609 1.534 1.534 5.607-1.465 1.531 1.723 2.164 1.66 3.31-.634 3.188-1.72 1.978-1.468-2.613-2.424-1.972.885-7.776-3.25.513-.443 3.888-2.545 4.464 1.531 1.465-.059 5.29-1.461 5.673 4.534 9.683 2.232 1.273 3.442.188 1.723 2.165.642 5.098-1.59 3.825-2.421 2.169-1.53-1.465-1.656 4.972-.568 6.183.767 2.804 2.615 2.674 2.107 3.567.704 3.951 1.979 1.719-.443 3.889 2.298 4.268.897 4.653 2.424 1.972 3.066 7.071 2.233 1.274.829 1.655-2.354 5.163 2.362 3.12 3.763 2.737-.126 2.294-3.055 5.357 1.023 2.356-1.336 3.379.575 2.102-2.737 3.763 3.509 3.184.321 2.548 10.01 2.158 3.38 1.335 3.061 2.929 4.081 1.144 3.442.188 4.209 2.992 4.085 5.287.45 4.396 7.527 5.475 4.017 2.291 7.077 1.076 2.106 3.568.451 4.396-1.336 3.379 2.678 1.527 1.912-1.276 4.464 2.545 2.554 3.821 4.786 5.095 6.19 8.854 3.642 9.173.007 8.285-1.466 1.53-.25 4.589 2.424 1.973-.059 5.289 18.045 2.598 21.93 3.039 32.258 3.605 1.655-.829 4.081 1.144 1.018-1.786 2.421-2.17.443-3.888-1.723-2.165-2.486-.826-1.723-2.165 1.59-3.824-.705-3.951.89-3.633 2.549-.321 3.884-3.7 2.672-6.758.377-6.883 4.076-2.998 1.273-2.232 4.462-1.598 4.269-2.297.318-1.593-5.869-6.304.38-2.742-1.855-8.155-1.339-.764-1.598-4.46.698-4.335z" fill="#88a4bc" stroke="#fff" stroke-linejoin="round" stroke-width=".913125"/><path d="m173.509 210.919 4.547 1.148c-.953 3.734-2.672 6.586-5.156 8.555-2.469 1.953-5.492 2.929-9.07 2.929-3.703 0-6.719-.75-9.047-2.25-2.313-1.515-4.078-3.703-5.297-6.562-1.203-2.86-1.805-5.93-1.805-9.211 0-3.578.68-6.695 2.039-9.352 1.375-2.672 3.321-4.695 5.836-6.07 2.532-1.391 5.313-2.086 8.344-2.086 3.438 0 6.328.875 8.672 2.625s3.977 4.211 4.898 7.383l-4.476 1.055c-.797-2.5-1.953-4.321-3.469-5.461-1.516-1.141-3.422-1.711-5.719-1.711-2.64 0-4.851.633-6.632 1.898-1.766 1.266-3.008 2.969-3.727 5.11-.719 2.125-1.078 4.32-1.078 6.585 0 2.922.422 5.477 1.265 7.665.86 2.171 2.188 3.796 3.985 4.875 1.797 1.078 3.742 1.617 5.836 1.617 2.547 0 4.703-.735 6.469-2.203 1.765-1.469 2.96-3.649 3.585-6.539zm6.399 12.046 13.195-34.359h4.899l14.062 34.359h-5.18l-4.007-10.406h-14.368l-3.773 10.406zm9.914-14.109h11.648l-3.586-9.516c-1.093-2.89-1.906-5.265-2.437-7.125-.438 2.204-1.055 4.391-1.852 6.563z" fill="#d5ddec"/><path d="m108.241 174.126c8.837 0 16-7.162 16-15.997s-7.163-15.997-16-15.997c-8.8365 0-15.9999 7.162-15.9999 15.997s7.1634 15.997 15.9999 15.997z" fill="#2041d4" opacity=".8" stroke="#fff" stroke-width="1.2175"/></svg>